<mxfile host="Electron" agent="Mozilla/5.0 (Windows NT 10.0; Win64; x64) AppleWebKit/537.36 (KHTML, like Gecko) draw.io/26.1.1 Chrome/132.0.6834.210 Electron/34.3.3 Safari/537.36" version="26.1.1">
  <diagram name="Page-1" id="sqhhU2AWH7weYtrHZ-3t">
    <mxGraphModel dx="2171" dy="1498" grid="1" gridSize="10" guides="1" tooltips="1" connect="1" arrows="1" fold="1" page="1" pageScale="1" pageWidth="850" pageHeight="1100" math="0" shadow="0">
      <root>
        <mxCell id="0" />
        <mxCell id="1" parent="0" />
        <mxCell id="jWPt5ZFizoyf-sGHTQFO-1" value="Student" style="shape=umlActor;verticalLabelPosition=bottom;verticalAlign=top;html=1;outlineConnect=0;" vertex="1" parent="1">
          <mxGeometry x="30" y="240" width="30" height="60" as="geometry" />
        </mxCell>
        <mxCell id="jWPt5ZFizoyf-sGHTQFO-2" value="Library Staff" style="shape=umlActor;verticalLabelPosition=bottom;verticalAlign=top;html=1;outlineConnect=0;" vertex="1" parent="1">
          <mxGeometry x="40" y="500" width="30" height="60" as="geometry" />
        </mxCell>
        <mxCell id="jWPt5ZFizoyf-sGHTQFO-4" value="Admin&lt;div&gt;&lt;br&gt;&lt;/div&gt;" style="shape=umlActor;verticalLabelPosition=bottom;verticalAlign=top;html=1;outlineConnect=0;" vertex="1" parent="1">
          <mxGeometry x="770" y="747.5" width="30" height="60" as="geometry" />
        </mxCell>
        <mxCell id="jWPt5ZFizoyf-sGHTQFO-5" value="Borrow book" style="ellipse;whiteSpace=wrap;html=1;" vertex="1" parent="1">
          <mxGeometry x="290" y="330" width="160" height="50" as="geometry" />
        </mxCell>
        <mxCell id="jWPt5ZFizoyf-sGHTQFO-6" value="Loan Books" style="ellipse;whiteSpace=wrap;html=1;" vertex="1" parent="1">
          <mxGeometry x="290" y="550" width="160" height="50" as="geometry" />
        </mxCell>
        <mxCell id="jWPt5ZFizoyf-sGHTQFO-7" value="Login" style="ellipse;whiteSpace=wrap;html=1;" vertex="1" parent="1">
          <mxGeometry x="290" y="390" width="160" height="50" as="geometry" />
        </mxCell>
        <mxCell id="jWPt5ZFizoyf-sGHTQFO-8" value="view Avability" style="ellipse;whiteSpace=wrap;html=1;" vertex="1" parent="1">
          <mxGeometry x="290" y="210" width="160" height="50" as="geometry" />
        </mxCell>
        <mxCell id="jWPt5ZFizoyf-sGHTQFO-9" value="Search book" style="ellipse;whiteSpace=wrap;html=1;" vertex="1" parent="1">
          <mxGeometry x="290" y="90" width="160" height="50" as="geometry" />
        </mxCell>
        <mxCell id="jWPt5ZFizoyf-sGHTQFO-10" value="Issue Remainder for overdue books" style="ellipse;whiteSpace=wrap;html=1;" vertex="1" parent="1">
          <mxGeometry x="290" y="757.5" width="160" height="50" as="geometry" />
        </mxCell>
        <mxCell id="jWPt5ZFizoyf-sGHTQFO-12" value="reserve book" style="ellipse;whiteSpace=wrap;html=1;" vertex="1" parent="1">
          <mxGeometry x="290" y="270" width="160" height="50" as="geometry" />
        </mxCell>
        <mxCell id="jWPt5ZFizoyf-sGHTQFO-14" value="Track Book Reservations" style="ellipse;whiteSpace=wrap;html=1;" vertex="1" parent="1">
          <mxGeometry x="290" y="610" width="160" height="50" as="geometry" />
        </mxCell>
        <mxCell id="jWPt5ZFizoyf-sGHTQFO-15" value="Retuen Book" style="ellipse;whiteSpace=wrap;html=1;" vertex="1" parent="1">
          <mxGeometry x="290" y="150" width="160" height="50" as="geometry" />
        </mxCell>
        <mxCell id="jWPt5ZFizoyf-sGHTQFO-20" value="Manage Inventory" style="ellipse;whiteSpace=wrap;html=1;" vertex="1" parent="1">
          <mxGeometry x="290" y="490" width="160" height="50" as="geometry" />
        </mxCell>
        <mxCell id="jWPt5ZFizoyf-sGHTQFO-33" value="" style="rounded=0;whiteSpace=wrap;html=1;fillColor=none;" vertex="1" parent="1">
          <mxGeometry x="190" y="40" width="490" height="850" as="geometry" />
        </mxCell>
        <mxCell id="jWPt5ZFizoyf-sGHTQFO-34" value="Update Book status" style="ellipse;whiteSpace=wrap;html=1;" vertex="1" parent="1">
          <mxGeometry x="290" y="677.5" width="160" height="50" as="geometry" />
        </mxCell>
        <mxCell id="jWPt5ZFizoyf-sGHTQFO-37" value="" style="endArrow=none;html=1;rounded=0;exitX=0.5;exitY=0.5;exitDx=0;exitDy=0;exitPerimeter=0;entryX=0;entryY=0.5;entryDx=0;entryDy=0;" edge="1" parent="1" source="jWPt5ZFizoyf-sGHTQFO-1" target="jWPt5ZFizoyf-sGHTQFO-9">
          <mxGeometry width="50" height="50" relative="1" as="geometry">
            <mxPoint x="80" y="270" as="sourcePoint" />
            <mxPoint x="130" y="220" as="targetPoint" />
          </mxGeometry>
        </mxCell>
        <mxCell id="jWPt5ZFizoyf-sGHTQFO-38" value="" style="endArrow=none;html=1;rounded=0;exitX=0.5;exitY=0.5;exitDx=0;exitDy=0;exitPerimeter=0;entryX=0;entryY=0.5;entryDx=0;entryDy=0;" edge="1" parent="1" source="jWPt5ZFizoyf-sGHTQFO-1" target="jWPt5ZFizoyf-sGHTQFO-15">
          <mxGeometry width="50" height="50" relative="1" as="geometry">
            <mxPoint x="55" y="280.5" as="sourcePoint" />
            <mxPoint x="300" y="125.5" as="targetPoint" />
          </mxGeometry>
        </mxCell>
        <mxCell id="jWPt5ZFizoyf-sGHTQFO-39" value="" style="endArrow=none;html=1;rounded=0;exitX=0.5;exitY=0.5;exitDx=0;exitDy=0;exitPerimeter=0;entryX=0;entryY=0.5;entryDx=0;entryDy=0;" edge="1" parent="1" source="jWPt5ZFizoyf-sGHTQFO-1" target="jWPt5ZFizoyf-sGHTQFO-8">
          <mxGeometry width="50" height="50" relative="1" as="geometry">
            <mxPoint x="65" y="290.5" as="sourcePoint" />
            <mxPoint x="310" y="135.5" as="targetPoint" />
          </mxGeometry>
        </mxCell>
        <mxCell id="jWPt5ZFizoyf-sGHTQFO-40" value="" style="endArrow=none;html=1;rounded=0;entryX=0;entryY=0.5;entryDx=0;entryDy=0;exitX=0.5;exitY=0.5;exitDx=0;exitDy=0;exitPerimeter=0;" edge="1" parent="1" source="jWPt5ZFizoyf-sGHTQFO-1" target="jWPt5ZFizoyf-sGHTQFO-12">
          <mxGeometry width="50" height="50" relative="1" as="geometry">
            <mxPoint x="75" y="300.5" as="sourcePoint" />
            <mxPoint x="320" y="145.5" as="targetPoint" />
          </mxGeometry>
        </mxCell>
        <mxCell id="jWPt5ZFizoyf-sGHTQFO-41" value="" style="endArrow=none;html=1;rounded=0;exitX=0.5;exitY=0.5;exitDx=0;exitDy=0;exitPerimeter=0;entryX=0;entryY=0.5;entryDx=0;entryDy=0;" edge="1" parent="1" source="jWPt5ZFizoyf-sGHTQFO-1" target="jWPt5ZFizoyf-sGHTQFO-5">
          <mxGeometry width="50" height="50" relative="1" as="geometry">
            <mxPoint x="85" y="310.5" as="sourcePoint" />
            <mxPoint x="330" y="155.5" as="targetPoint" />
          </mxGeometry>
        </mxCell>
        <mxCell id="jWPt5ZFizoyf-sGHTQFO-43" value="" style="endArrow=none;html=1;rounded=0;exitX=0.5;exitY=0.5;exitDx=0;exitDy=0;exitPerimeter=0;entryX=0;entryY=0.5;entryDx=0;entryDy=0;" edge="1" parent="1" source="jWPt5ZFizoyf-sGHTQFO-1" target="jWPt5ZFizoyf-sGHTQFO-7">
          <mxGeometry width="50" height="50" relative="1" as="geometry">
            <mxPoint x="55" y="280.5" as="sourcePoint" />
            <mxPoint x="300" y="365.5" as="targetPoint" />
          </mxGeometry>
        </mxCell>
        <mxCell id="jWPt5ZFizoyf-sGHTQFO-44" value="" style="endArrow=none;html=1;rounded=0;entryX=0;entryY=0.5;entryDx=0;entryDy=0;exitX=0.5;exitY=0.5;exitDx=0;exitDy=0;exitPerimeter=0;" edge="1" parent="1" source="jWPt5ZFizoyf-sGHTQFO-2" target="jWPt5ZFizoyf-sGHTQFO-7">
          <mxGeometry width="50" height="50" relative="1" as="geometry">
            <mxPoint x="65" y="290.5" as="sourcePoint" />
            <mxPoint x="310" y="375.5" as="targetPoint" />
          </mxGeometry>
        </mxCell>
        <mxCell id="jWPt5ZFizoyf-sGHTQFO-45" value="" style="endArrow=none;html=1;rounded=0;exitX=0.5;exitY=0.5;exitDx=0;exitDy=0;exitPerimeter=0;entryX=0;entryY=0.5;entryDx=0;entryDy=0;" edge="1" parent="1" source="jWPt5ZFizoyf-sGHTQFO-2" target="jWPt5ZFizoyf-sGHTQFO-20">
          <mxGeometry width="50" height="50" relative="1" as="geometry">
            <mxPoint x="75" y="300.5" as="sourcePoint" />
            <mxPoint x="320" y="385.5" as="targetPoint" />
          </mxGeometry>
        </mxCell>
        <mxCell id="jWPt5ZFizoyf-sGHTQFO-46" value="" style="endArrow=none;html=1;rounded=0;exitX=0.5;exitY=0.5;exitDx=0;exitDy=0;exitPerimeter=0;entryX=0;entryY=0.5;entryDx=0;entryDy=0;" edge="1" parent="1" source="jWPt5ZFizoyf-sGHTQFO-2" target="jWPt5ZFizoyf-sGHTQFO-6">
          <mxGeometry width="50" height="50" relative="1" as="geometry">
            <mxPoint x="65" y="540.5" as="sourcePoint" />
            <mxPoint x="300" y="525.5" as="targetPoint" />
          </mxGeometry>
        </mxCell>
        <mxCell id="jWPt5ZFizoyf-sGHTQFO-47" value="" style="endArrow=none;html=1;rounded=0;exitX=0.5;exitY=0.5;exitDx=0;exitDy=0;exitPerimeter=0;entryX=0;entryY=0.5;entryDx=0;entryDy=0;" edge="1" parent="1" source="jWPt5ZFizoyf-sGHTQFO-2" target="jWPt5ZFizoyf-sGHTQFO-14">
          <mxGeometry width="50" height="50" relative="1" as="geometry">
            <mxPoint x="75" y="550.5" as="sourcePoint" />
            <mxPoint x="310" y="535.5" as="targetPoint" />
          </mxGeometry>
        </mxCell>
        <mxCell id="jWPt5ZFizoyf-sGHTQFO-48" value="" style="endArrow=none;html=1;rounded=0;exitX=0.5;exitY=0.5;exitDx=0;exitDy=0;exitPerimeter=0;entryX=0;entryY=0.5;entryDx=0;entryDy=0;" edge="1" parent="1" source="jWPt5ZFizoyf-sGHTQFO-2" target="jWPt5ZFizoyf-sGHTQFO-34">
          <mxGeometry width="50" height="50" relative="1" as="geometry">
            <mxPoint x="85" y="560.5" as="sourcePoint" />
            <mxPoint x="320" y="545.5" as="targetPoint" />
          </mxGeometry>
        </mxCell>
        <mxCell id="jWPt5ZFizoyf-sGHTQFO-49" value="" style="endArrow=none;html=1;rounded=0;exitX=1;exitY=0.5;exitDx=0;exitDy=0;entryX=0.5;entryY=0.5;entryDx=0;entryDy=0;entryPerimeter=0;" edge="1" parent="1" source="jWPt5ZFizoyf-sGHTQFO-10" target="jWPt5ZFizoyf-sGHTQFO-4">
          <mxGeometry width="50" height="50" relative="1" as="geometry">
            <mxPoint x="440" y="885" as="sourcePoint" />
            <mxPoint x="675" y="870" as="targetPoint" />
          </mxGeometry>
        </mxCell>
        <mxCell id="jWPt5ZFizoyf-sGHTQFO-50" style="shape=connector;rounded=0;orthogonalLoop=1;jettySize=auto;html=1;strokeColor=default;align=center;verticalAlign=middle;fontFamily=Helvetica;fontSize=11;fontColor=default;labelBackgroundColor=default;endArrow=classic;entryX=0.5;entryY=0;entryDx=0;entryDy=0;dashed=1;exitX=1;exitY=0.5;exitDx=0;exitDy=0;" edge="1" parent="1" target="jWPt5ZFizoyf-sGHTQFO-51" source="jWPt5ZFizoyf-sGHTQFO-7">
          <mxGeometry relative="1" as="geometry">
            <mxPoint x="640" y="487.5" as="targetPoint" />
            <mxPoint x="580" y="397.5" as="sourcePoint" />
          </mxGeometry>
        </mxCell>
        <mxCell id="jWPt5ZFizoyf-sGHTQFO-51" value="Registeration" style="ellipse;whiteSpace=wrap;html=1;" vertex="1" parent="1">
          <mxGeometry x="470" y="440" width="160" height="50" as="geometry" />
        </mxCell>
      </root>
    </mxGraphModel>
  </diagram>
</mxfile>
